<svg id="图层_1" data-name="图层 1" xmlns="http://www.w3.org/2000/svg" viewBox="0 0 509 44"><path d="M182,17.89a8.2,8.2,0,0,1-1.61-.92l.48-3.82h.11a7.82,7.82,0,0,0,.93,3.59,2.31,2.31,0,0,0,2,1.1,3.06,3.06,0,0,0,2.23-.87,4.37,4.37,0,0,0,1.16-2.46,4.32,4.32,0,0,0,.08-.79,2.87,2.87,0,0,0-.28-1.31,3.61,3.61,0,0,0-.74-1,12.49,12.49,0,0,0-1.2-1l-.49-.35c-.48-.36-.89-.69-1.23-1A4.07,4.07,0,0,1,182.59,8a3.27,3.27,0,0,1-.37-1.56,5.24,5.24,0,0,1,.07-.74,4.65,4.65,0,0,1,.89-2.09,4.27,4.27,0,0,1,1.7-1.33,5.36,5.36,0,0,1,2.25-.46,4.42,4.42,0,0,1,1.7.37,6.42,6.42,0,0,1,1.57,1L190,6.91h-.11a12.5,12.5,0,0,0-.48-2.68,3.12,3.12,0,0,0-.92-1.51,2.4,2.4,0,0,0-1.6-.51,2.43,2.43,0,0,0-1.27.37,3.07,3.07,0,0,0-1,1.06A4.66,4.66,0,0,0,184,5.25,3.65,3.65,0,0,0,184,6,2.55,2.55,0,0,0,184.17,7a3.11,3.11,0,0,0,.61.84,9.11,9.11,0,0,0,1.05.84l.55.4a13.57,13.57,0,0,1,1.38,1.1,4.52,4.52,0,0,1,1,1.28,3.66,3.66,0,0,1,.41,1.74,4.91,4.91,0,0,1-.08.86,5,5,0,0,1-1,2.35,4.72,4.72,0,0,1-1.88,1.38,6.29,6.29,0,0,1-2.32.43A4.7,4.7,0,0,1,182,17.89Z"/><path d="M192.23,17.75a3.43,3.43,0,0,1-1.13-1.46,5.78,5.78,0,0,1-.4-2.19,8.72,8.72,0,0,1,.8-3.72,6.79,6.79,0,0,1,2.16-2.7,4.9,4.9,0,0,1,3-1A4.72,4.72,0,0,1,198,6.9a7.24,7.24,0,0,1,1.24.46l-.86,2.77h-.17l0-.27c-.15-.7-.26-1.25-.35-1.66a5.36,5.36,0,0,0-.32-1l-.42-.13a2,2,0,0,0-.53-.08A3,3,0,0,0,194.4,8,6,6,0,0,0,193,10.43a10.56,10.56,0,0,0-.5,3.33,5.11,5.11,0,0,0,.55,2.71,2,2,0,0,0,1.79.85,3.28,3.28,0,0,0,1.66-.47,4.23,4.23,0,0,0,1.4-1.3l.12.1a5.42,5.42,0,0,1-1.76,2,4.16,4.16,0,0,1-2.29.66A2.93,2.93,0,0,1,192.23,17.75Z"/><path d="M200.52,18a1.27,1.27,0,0,1-.25-.87,6.69,6.69,0,0,1,.12-1.13l1.41-7.91-1.39-.46.05-.22,3-.71.08.12-.28,1.4-1.47,8.2a4.62,4.62,0,0,0-.06.62.57.57,0,0,0,.09.38.33.33,0,0,0,.26.1.88.88,0,0,0,.38-.13A2.67,2.67,0,0,0,203,17a3.61,3.61,0,0,0,.59-.74l.14.13a4.75,4.75,0,0,1-1.2,1.46,2.12,2.12,0,0,1-1.22.45A1.05,1.05,0,0,1,200.52,18Zm1.92-14.07a.75.75,0,0,1-.23-.57,1.11,1.11,0,0,1,.36-.83,1.14,1.14,0,0,1,.84-.34.86.86,0,0,1,.62.22.78.78,0,0,1,.23.58,1.11,1.11,0,0,1-.35.83,1.18,1.18,0,0,1-.85.33A.86.86,0,0,1,202.44,3.91Z"/><path d="M207.14,11.59a11.51,11.51,0,0,0-.24,2.2,4.81,4.81,0,0,0,.58,2.7,2,2,0,0,0,1.72.83,3.56,3.56,0,0,0,1.71-.47,4,4,0,0,0,1.39-1.3l.11.1a5.13,5.13,0,0,1-1.73,1.94,4.27,4.27,0,0,1-2.35.67,2.82,2.82,0,0,1-1.71-.52,3.24,3.24,0,0,1-1.1-1.46,5.89,5.89,0,0,1-.37-2.18,9.26,9.26,0,0,1,.73-3.7,7.18,7.18,0,0,1,2-2.71,4.21,4.21,0,0,1,2.69-1,2.79,2.79,0,0,1,1.6.45,2.69,2.69,0,0,1,1,1.26,4.76,4.76,0,0,1,.33,1.84,7.9,7.9,0,0,1-.12,1.36Zm1.32-3.31a9.29,9.29,0,0,0-1.26,3.08l4.63-.26A7.78,7.78,0,0,0,212,9.54a3.55,3.55,0,0,0-.41-1.87A1.33,1.33,0,0,0,210.41,7,2.36,2.36,0,0,0,208.46,8.28Z"/><path d="M221.24,18a1.15,1.15,0,0,1-.25-.83,5.45,5.45,0,0,1,.09-.86l1.15-6.53a7.24,7.24,0,0,0,.13-1.24,1.33,1.33,0,0,0-.19-.83.7.7,0,0,0-.58-.24,2.74,2.74,0,0,0-1.68.83,8.65,8.65,0,0,0-1.78,2.3,11.4,11.4,0,0,0-1.23,3.25l-.73,4.07-1.52.12,1.75-10-1.49-.46L215,7.4,218,6.68l.09.12-.29,1.41-.63,3.34h0a11.13,11.13,0,0,1,1.13-2.13,9.21,9.21,0,0,1,1.7-1.94,2.9,2.9,0,0,1,1.83-.8,1.88,1.88,0,0,1,1.43.54,2.24,2.24,0,0,1,.52,1.61,5.36,5.36,0,0,1-.1,1l-1.24,6.75a1.75,1.75,0,0,0-.05.4.69.69,0,0,0,.09.38.29.29,0,0,0,.25.14,1.28,1.28,0,0,0,.71-.32,3.74,3.74,0,0,0,.84-1l.15.13a5.59,5.59,0,0,1-1.21,1.46,2,2,0,0,1-1.24.45A1.1,1.1,0,0,1,221.24,18Z"/><path d="M227.41,17.75a3.28,3.28,0,0,1-1.13-1.46,5.59,5.59,0,0,1-.4-2.19,8.57,8.57,0,0,1,.8-3.72,6.79,6.79,0,0,1,2.16-2.7,4.9,4.9,0,0,1,3-1,4.66,4.66,0,0,1,1.38.22,7.24,7.24,0,0,1,1.24.46l-.86,2.77h-.17l-.05-.27c-.14-.7-.26-1.25-.35-1.66a4.69,4.69,0,0,0-.32-1c-.09,0-.22-.08-.41-.13a2.14,2.14,0,0,0-.54-.08,3,3,0,0,0-2.16.94,6.16,6.16,0,0,0-1.42,2.48,10.86,10.86,0,0,0-.5,3.33,5.21,5.21,0,0,0,.55,2.71,2,2,0,0,0,1.79.85,3.28,3.28,0,0,0,1.66-.47,4.13,4.13,0,0,0,1.4-1.3l.12.1a5.34,5.34,0,0,1-1.76,2,4.16,4.16,0,0,1-2.29.66A2.9,2.9,0,0,1,227.41,17.75Z"/><path d="M236.86,11.59a11.51,11.51,0,0,0-.24,2.2,4.81,4.81,0,0,0,.58,2.7,2,2,0,0,0,1.72.83,3.56,3.56,0,0,0,1.71-.47,4.11,4.11,0,0,0,1.39-1.3l.11.1a5.13,5.13,0,0,1-1.73,1.94,4.27,4.27,0,0,1-2.35.67,2.82,2.82,0,0,1-1.71-.52,3.17,3.17,0,0,1-1.1-1.46,5.89,5.89,0,0,1-.37-2.18,9.26,9.26,0,0,1,.73-3.7,7.18,7.18,0,0,1,2-2.71,4.19,4.19,0,0,1,2.69-1,2.79,2.79,0,0,1,1.6.45,2.69,2.69,0,0,1,1,1.26,4.76,4.76,0,0,1,.33,1.84,7.9,7.9,0,0,1-.12,1.36Zm1.32-3.31a9.29,9.29,0,0,0-1.26,3.08l4.63-.26a7.78,7.78,0,0,0,.18-1.56,3.55,3.55,0,0,0-.41-1.87A1.34,1.34,0,0,0,240.13,7,2.36,2.36,0,0,0,238.18,8.28Z"/><path d="M249.75,17.08a5.46,5.46,0,0,1-.91-3.36,9.11,9.11,0,0,1,.72-3.76,5.77,5.77,0,0,1,1.93-2.44,4.69,4.69,0,0,1,2.71-.84,3.14,3.14,0,0,1,2.64,1.19,5.46,5.46,0,0,1,.92,3.38,9.19,9.19,0,0,1-.71,3.75,5.68,5.68,0,0,1-1.94,2.43,4.71,4.71,0,0,1-2.74.83A3.11,3.11,0,0,1,249.75,17.08Zm4.53,0a5.94,5.94,0,0,0,1.28-2.49,14.36,14.36,0,0,0,.47-3.9,6.91,6.91,0,0,0-.43-2.78,1.5,1.5,0,0,0-1.46-.9,2.45,2.45,0,0,0-1.83.87A6.09,6.09,0,0,0,251,10.39a14.64,14.64,0,0,0-.47,3.93,6.5,6.5,0,0,0,.43,2.73,1.49,1.49,0,0,0,1.46.88A2.5,2.5,0,0,0,254.28,17.08Z"/><path d="M255.27,22.49a2.39,2.39,0,0,1-.8-.41l1.18-2.51h.16c.09,1,.18,1.87.3,2.62l.17.07a.74.74,0,0,0,.32.07,2.07,2.07,0,0,0,1.73-1,7,7,0,0,0,1-2.81l2-11.21h-1.54l0-.33h1.58l-.1-1.08a4,4,0,0,1,0-.56,4.2,4.2,0,0,1,.55-2.2,3.59,3.59,0,0,1,1.45-1.34,4.49,4.49,0,0,1,1.95-.44,4,4,0,0,1,1.13.17,3.16,3.16,0,0,1,.9.41l-.77,2.5h-.15c-.23-.9-.48-1.78-.74-2.65l-.18-.05a1.26,1.26,0,0,0-.33-.05,1.91,1.91,0,0,0-1.19.41,2.77,2.77,0,0,0-.84,1.14,4.24,4.24,0,0,0-.3,1.64c0,.1,0,.26,0,.48L262.93,7h2.28l-.07.33h-2.27L261,18a6.7,6.7,0,0,1-.95,2.53,5,5,0,0,1-1.68,1.62,4.11,4.11,0,0,1-2.05.56A3.12,3.12,0,0,1,255.27,22.49Z"/><path d="M270.21,16.62a4.92,4.92,0,0,1,.07-.84l1.5-8.47h-1l0-.16,1.12-.54,1.74-2h.11L273.35,7h2.34l-.05.33H273.3l-1.54,8.88a2.81,2.81,0,0,0-.05.49c0,.51.21.76.64.76a2.45,2.45,0,0,0,1-.21,3,3,0,0,0,.88-.67l.09.13a3.89,3.89,0,0,1-1.17,1.11,2.59,2.59,0,0,1-1.41.46C270.72,18.26,270.21,17.72,270.21,16.62Z"/><path d="M283,18a1.3,1.3,0,0,1-.24-.89,6,6,0,0,1,.11-1L284,9.58a6.27,6.27,0,0,0,.1-.95c0-.77-.24-1.15-.72-1.15a2.85,2.85,0,0,0-1.73.83,8.58,8.58,0,0,0-1.8,2.29,11.79,11.79,0,0,0-1.24,3.26L277.89,18h-1.5l2.67-15.21-1.57-.52,0-.21,3.18-.66.08.13L280.36,4l-1.06,6.13-.36,1.41H279a9.36,9.36,0,0,1,1.13-2.11,9.67,9.67,0,0,1,1.71-2,2.87,2.87,0,0,1,1.8-.8,1.83,1.83,0,0,1,1.48.59,2.41,2.41,0,0,1,.49,1.58,5.75,5.75,0,0,1-.08.88l-1.25,6.72a3.15,3.15,0,0,0-.06.55c0,.33.1.5.32.5a1.25,1.25,0,0,0,.7-.32,3.74,3.74,0,0,0,.84-1l.13.15A5.09,5.09,0,0,1,285,17.81a2.1,2.1,0,0,1-1.31.45A.89.89,0,0,1,283,18Z"/><path d="M289.59,11.59a11.51,11.51,0,0,0-.24,2.2,4.81,4.81,0,0,0,.58,2.7,2,2,0,0,0,1.73.83,3.55,3.55,0,0,0,1.7-.47,4,4,0,0,0,1.39-1.3l.11.1a5.13,5.13,0,0,1-1.73,1.94,4.27,4.27,0,0,1-2.35.67,2.82,2.82,0,0,1-1.71-.52A3.16,3.16,0,0,1,288,16.28a5.69,5.69,0,0,1-.38-2.18,9.09,9.09,0,0,1,.74-3.7,7.05,7.05,0,0,1,2-2.71,4.21,4.21,0,0,1,2.69-1,2.63,2.63,0,0,1,2.59,1.71,5,5,0,0,1,.32,1.84,7.9,7.9,0,0,1-.12,1.36Zm1.32-3.31a9.29,9.29,0,0,0-1.26,3.08l4.63-.26a7.78,7.78,0,0,0,.18-1.56,3.55,3.55,0,0,0-.41-1.87A1.33,1.33,0,0,0,292.86,7,2.37,2.37,0,0,0,290.91,8.28Z"/><path d="M302.61,17.89A8.2,8.2,0,0,1,301,17l.48-3.82h.11a7.82,7.82,0,0,0,.93,3.59,2.31,2.31,0,0,0,2.05,1.1A3.06,3.06,0,0,0,306.8,17,4.37,4.37,0,0,0,308,14.51a4.32,4.32,0,0,0,.08-.79,2.87,2.87,0,0,0-.28-1.31,3.61,3.61,0,0,0-.74-1,12.49,12.49,0,0,0-1.2-1l-.49-.35c-.48-.36-.89-.69-1.23-1A4.07,4.07,0,0,1,303.24,8a3.27,3.27,0,0,1-.37-1.56,5.24,5.24,0,0,1,.07-.74,4.65,4.65,0,0,1,.89-2.09,4.2,4.2,0,0,1,1.7-1.33,5.36,5.36,0,0,1,2.25-.46,4.42,4.42,0,0,1,1.7.37,6.42,6.42,0,0,1,1.57,1l-.43,3.79h-.11A12.5,12.5,0,0,0,310,4.23a3.12,3.12,0,0,0-.92-1.51,2.4,2.4,0,0,0-1.6-.51,2.43,2.43,0,0,0-1.27.37,3.07,3.07,0,0,0-1,1.06,4.66,4.66,0,0,0-.58,1.61,3.65,3.65,0,0,0-.07.72A2.55,2.55,0,0,0,304.82,7a3.11,3.11,0,0,0,.61.84,9.11,9.11,0,0,0,1.05.84l.55.4a13.57,13.57,0,0,1,1.38,1.1,4.52,4.52,0,0,1,1,1.28,3.66,3.66,0,0,1,.41,1.74,4.91,4.91,0,0,1-.08.86,5,5,0,0,1-1,2.35,4.72,4.72,0,0,1-1.88,1.38,6.29,6.29,0,0,1-2.32.43A4.7,4.7,0,0,1,302.61,17.89Z"/><path d="M313.36,11.59a11.51,11.51,0,0,0-.24,2.2,4.81,4.81,0,0,0,.58,2.7,2,2,0,0,0,1.72.83,3.49,3.49,0,0,0,1.7-.47,3.94,3.94,0,0,0,1.39-1.3l.12.1a5.21,5.21,0,0,1-1.73,1.94,4.29,4.29,0,0,1-2.35.67,2.82,2.82,0,0,1-1.71-.52,3.17,3.17,0,0,1-1.1-1.46,5.89,5.89,0,0,1-.38-2.18,9.26,9.26,0,0,1,.74-3.7,7,7,0,0,1,2-2.71,4.19,4.19,0,0,1,2.68-1,2.74,2.74,0,0,1,1.6.45,2.77,2.77,0,0,1,1,1.26,4.76,4.76,0,0,1,.33,1.84,7.9,7.9,0,0,1-.12,1.36Zm1.31-3.31a9.51,9.51,0,0,0-1.25,3.08l4.63-.26a7.78,7.78,0,0,0,.18-1.56,3.55,3.55,0,0,0-.41-1.87A1.34,1.34,0,0,0,316.63,7,2.37,2.37,0,0,0,314.67,8.28Z"/><path d="M321.93,17.75a3.28,3.28,0,0,1-1.13-1.46,5.59,5.59,0,0,1-.4-2.19,8.72,8.72,0,0,1,.8-3.72,6.79,6.79,0,0,1,2.16-2.7,4.9,4.9,0,0,1,3-1,4.72,4.72,0,0,1,1.39.22,7.57,7.57,0,0,1,1.24.46l-.87,2.77h-.16l-.06-.27c-.14-.7-.26-1.25-.35-1.66a5.43,5.43,0,0,0-.31-1l-.42-.13a2.14,2.14,0,0,0-.54-.08A2.94,2.94,0,0,0,324.1,8a6.06,6.06,0,0,0-1.43,2.48,10.86,10.86,0,0,0-.5,3.33,5.1,5.1,0,0,0,.56,2.71,2,2,0,0,0,1.78.85,3.25,3.25,0,0,0,1.66-.47,4.13,4.13,0,0,0,1.4-1.3l.12.1a5.25,5.25,0,0,1-1.76,2,4.16,4.16,0,0,1-2.28.66A2.93,2.93,0,0,1,321.93,17.75Z"/><path d="M330.39,17.08a5.4,5.4,0,0,1-.91-3.36,9.27,9.27,0,0,1,.71-3.76,5.71,5.71,0,0,1,1.94-2.44,4.64,4.64,0,0,1,2.7-.84,3.15,3.15,0,0,1,2.65,1.19,5.46,5.46,0,0,1,.91,3.38,9.19,9.19,0,0,1-.71,3.75,5.66,5.66,0,0,1-1.93,2.43,4.74,4.74,0,0,1-2.75.83A3.07,3.07,0,0,1,330.39,17.08Zm4.52,0a5.83,5.83,0,0,0,1.29-2.49,14.39,14.39,0,0,0,.46-3.9,6.74,6.74,0,0,0-.43-2.78,1.49,1.49,0,0,0-1.45-.9,2.48,2.48,0,0,0-1.84.87,6,6,0,0,0-1.28,2.51,14.22,14.22,0,0,0-.48,3.93,6.67,6.67,0,0,0,.43,2.73,1.49,1.49,0,0,0,1.46.88A2.5,2.5,0,0,0,334.91,17.08Z"/><path d="M346.59,18a1.15,1.15,0,0,1-.25-.83,5.45,5.45,0,0,1,.09-.86l1.15-6.53a7.24,7.24,0,0,0,.13-1.24,1.33,1.33,0,0,0-.19-.83.7.7,0,0,0-.58-.24,2.74,2.74,0,0,0-1.68.83,8.65,8.65,0,0,0-1.78,2.3,11.4,11.4,0,0,0-1.23,3.25l-.73,4.07-1.52.12,1.75-10-1.49-.46.05-.21,3.08-.72.09.12-.29,1.41-.63,3.34h0a11.13,11.13,0,0,1,1.13-2.13,9.21,9.21,0,0,1,1.7-1.94,2.9,2.9,0,0,1,1.83-.8,1.88,1.88,0,0,1,1.43.54,2.24,2.24,0,0,1,.52,1.61,5.36,5.36,0,0,1-.1,1l-1.24,6.75a1.75,1.75,0,0,0-.05.4.69.69,0,0,0,.09.38.29.29,0,0,0,.25.14,1.28,1.28,0,0,0,.71-.32,3.74,3.74,0,0,0,.84-1l.15.13a5.59,5.59,0,0,1-1.21,1.46,2,2,0,0,1-1.24.45A1.1,1.1,0,0,1,346.59,18Z"/><path d="M352.67,17.8a3,3,0,0,1-.84-1.35,6.5,6.5,0,0,1-.3-2.09,9,9,0,0,1,.8-3.79,7.34,7.34,0,0,1,2.17-2.83,4.69,4.69,0,0,1,3-1.06,1.94,1.94,0,0,1,1.25.43,2,2,0,0,1,.73,1l.92-5.33L359,2.29l0-.23,3-.68.08.15L361.68,4l-2.07,11.79a8,8,0,0,0-.16,1.27c0,.31.08.46.22.46a1.3,1.3,0,0,0,.73-.32,4.18,4.18,0,0,0,.86-1l.12.15a5.41,5.41,0,0,1-1.19,1.44,2,2,0,0,1-1.24.45.94.94,0,0,1-.72-.26,1.5,1.5,0,0,1-.24-1,17.57,17.57,0,0,1,.6-3.6h-.07a11.14,11.14,0,0,1-1.25,2.36,8,8,0,0,1-1.65,1.82,2.74,2.74,0,0,1-1.66.68A1.94,1.94,0,0,1,352.67,17.8ZM356,16.55A9,9,0,0,0,357.8,14a15.56,15.56,0,0,0,1.32-4.07l.1-.51a3.89,3.89,0,0,0-.3-1.26,2.08,2.08,0,0,0-.63-.85,1.39,1.39,0,0,0-.86-.3,2.89,2.89,0,0,0-2.06,1,7.08,7.08,0,0,0-1.54,2.7,11.15,11.15,0,0,0-.59,3.66,5.88,5.88,0,0,0,.33,2.23c.22.52.54.78.95.78A2.51,2.51,0,0,0,356,16.55Z"/><path d="M363.17,17.76a1.79,1.79,0,0,1-.57-1.41,3,3,0,0,1,.06-.55,3.83,3.83,0,0,1,1.11-2.08A6.31,6.31,0,0,1,366,12.33a8.58,8.58,0,0,1,2.71-.58l.21-1.21a11.11,11.11,0,0,0,.18-1.74,2.09,2.09,0,0,0-.34-1.35A1.35,1.35,0,0,0,367.65,7a1.9,1.9,0,0,0-.54.07,4.08,4.08,0,0,0-.71.29c-.29.52-.58,1-.87,1.52l-.77,1.34h-.16l.13-2.76A12.79,12.79,0,0,1,366.26,7a5.82,5.82,0,0,1,1.64-.26,2.65,2.65,0,0,1,2,.66,2.5,2.5,0,0,1,.61,1.8,6.75,6.75,0,0,1-.11,1.19L369.26,17l1,.57,0,.14-2.45.57.09-1.57a5.67,5.67,0,0,1-1.5,1.15,3.66,3.66,0,0,1-1.67.42A2.12,2.12,0,0,1,363.17,17.76Zm4.71-1.42.74-4.24a5.52,5.52,0,0,0-2.82,1.05,3.65,3.65,0,0,0-1.39,2.35,3.41,3.41,0,0,0-.07.68c0,.84.39,1.25,1.18,1.25A3.17,3.17,0,0,0,367.88,16.34Z"/><path d="M372.23,18.05l1.75-10-1.45-.46.05-.21,3.1-.72.07.12-.27,1.37-.65,3.38h.05a11.46,11.46,0,0,1,1.08-2,12.81,12.81,0,0,1,1.54-2,2.17,2.17,0,0,1,1.32-.83,1.19,1.19,0,0,1,.8.27l-.78,2.82h-.12a13.06,13.06,0,0,0-.86-2q-.3,0-1,1a14.86,14.86,0,0,0-1.38,2.37,12,12,0,0,0-.93,2.71l-.76,4.1Z"/><path d="M376.92,20.54l.1-.18c.51.09.94.15,1.28.19a6,6,0,0,0,1,0A16.08,16.08,0,0,0,380.83,19a18.65,18.65,0,0,0,1.35-1.78c0-1.69,0-3.22-.08-4.57A33.61,33.61,0,0,0,381.81,9a3.77,3.77,0,0,0-.31-1.18c-.13-.25-.28-.37-.43-.37s-.66.43-1.18,1.29l-.13-.12a10.69,10.69,0,0,1,.66-1.07,2.49,2.49,0,0,1,.66-.64,1.48,1.48,0,0,1,.84-.24,1,1,0,0,1,.66.21,1.42,1.42,0,0,1,.41.64,6.48,6.48,0,0,1,.29,1.25,15.86,15.86,0,0,1,.19,2.16c0,.89,0,2.07.07,3.54v1.17a30.34,30.34,0,0,0,2.2-3.11,17.71,17.71,0,0,0,1.48-3.21l-1-2.13,0-.22h2l0,.22a20.11,20.11,0,0,1-1.43,4,21.57,21.57,0,0,1-1.9,3.21c-.7,1-1.66,2.2-2.9,3.73a20.87,20.87,0,0,1-4.48,4.43Z"/><path d="M391.47,42h-5.25v-.22l1.63-.59V26.86l-1.63-.6V26h8.91v3.89h-.08l-1.36-3.47h-4.23V33.7h2.81l.94-2.1h.15v4.59h-.15l-.94-2.07h-2.81v7.05l2,.6Z"/><path d="M400.93,42h-4.54v-.22l1.52-.46V26.77l-1.17-.53V26.1l2.57-.7.1.12V41.31l1.52.46Z"/><path d="M404.16,41.57a4.35,4.35,0,0,1-1.53-2,8.12,8.12,0,0,1-.54-3.11,8.19,8.19,0,0,1,.54-3.13,4.46,4.46,0,0,1,1.53-2,4.16,4.16,0,0,1,4.56,0,4.39,4.39,0,0,1,1.53,2,8.19,8.19,0,0,1,.54,3.13,8.12,8.12,0,0,1-.54,3.11,4.29,4.29,0,0,1-1.53,2,4.11,4.11,0,0,1-4.56,0Zm4.29-1a9.27,9.27,0,0,0,.7-4.07,9.08,9.08,0,0,0-.71-4.07,2.12,2.12,0,0,0-4,0,9.28,9.28,0,0,0-.71,4.07,9.24,9.24,0,0,0,.7,4.07,2.15,2.15,0,0,0,4,0Z"/><path d="M414.5,41.57a4.33,4.33,0,0,1-1.52-2,7.93,7.93,0,0,1-.55-3.11,8,8,0,0,1,.55-3.13,4.44,4.44,0,0,1,1.52-2,4.18,4.18,0,0,1,4.57,0,4.44,4.44,0,0,1,1.52,2,8.19,8.19,0,0,1,.54,3.13,8.12,8.12,0,0,1-.54,3.11,4.33,4.33,0,0,1-1.52,2,4.13,4.13,0,0,1-4.57,0Zm4.29-1a9.27,9.27,0,0,0,.7-4.07,9.08,9.08,0,0,0-.71-4.07,2.18,2.18,0,0,0-2-1.4,2.2,2.2,0,0,0-2,1.4,9.28,9.28,0,0,0-.71,4.07,9.39,9.39,0,0,0,.7,4.07,2.15,2.15,0,0,0,4,0Z"/><path d="M422.41,42v-.22l1.52-.46V32.05l-1.35-.45v-.21l2.76-.72.08.12v1.9a4.53,4.53,0,0,1,.83-1.13,3.42,3.42,0,0,1,.94-.67,2.07,2.07,0,0,1,.87-.22,1.68,1.68,0,0,1,.79.16l-.33,2.61h-.11a10.63,10.63,0,0,0-1.31-1.67c-.63,0-1.19.46-1.68,1.37v8.17l1.72.46V42Z"/><path d="M444.3,42h-9.81v-.22l1.64-.59V26.86l-1.63-.6V26h9.16v3.89h-.08l-1.36-3.47h-4.47V33.6h2.93l.95-2.1h.16v4.59h-.16L440.68,34h-2.93v7.55h5.1l1.86-3.49.09,0Z"/><path d="M450.35,36l2.91,5.3,1.13.47V42h-4.05v-.22l1.12-.46L449.24,37l-2.42,4.28,1,.46V42H445.2v-.22l1.16-.45L449,36.65l-2.81-5-1-.44V31h4.11v.23l-1.15.47,2,4,2.25-4-1.09-.47V31H454v.23l-1.08.47Z"/><path d="M457.13,41.57a4.39,4.39,0,0,1-1.45-1.94,7.54,7.54,0,0,1-.5-2.87,8.91,8.91,0,0,1,.52-3.18,5.06,5.06,0,0,1,1.44-2.14,3.15,3.15,0,0,1,2.07-.77,2.93,2.93,0,0,1,1.89.65,4.13,4.13,0,0,1,1.22,1.77,7,7,0,0,1,.42,2.49h-5.9a5.66,5.66,0,0,0,0,.66,7.89,7.89,0,0,0,.74,3.72,2.33,2.33,0,0,0,2.15,1.36,4,4,0,0,0,1.51-.3,4.31,4.31,0,0,0,1.31-.84l.1.15a5.35,5.35,0,0,1-1.5,1.4,3.29,3.29,0,0,1-1.77.53A3.67,3.67,0,0,1,457.13,41.57Zm4.06-6.48a6.84,6.84,0,0,0-.54-3,1.65,1.65,0,0,0-1.5-1.06,1.52,1.52,0,0,0-1.16.53,3.82,3.82,0,0,0-.79,1.51,9.32,9.32,0,0,0-.36,2.29Z"/><path d="M463.65,42v-.22l1.51-.46V32.05l-1.35-.45v-.21l2.76-.72.09.12v1.9a4.3,4.3,0,0,1,.83-1.13,3.28,3.28,0,0,1,.94-.67,2,2,0,0,1,.87-.22,1.68,1.68,0,0,1,.79.16l-.34,2.61h-.11a10.59,10.59,0,0,0-1.3-1.67c-.63,0-1.19.46-1.68,1.37v8.17l1.72.46V42Z"/><path d="M473.15,41.58a4.31,4.31,0,0,1-1.46-1.91,7.23,7.23,0,0,1-.52-2.86,8.48,8.48,0,0,1,.59-3.31,4.75,4.75,0,0,1,1.61-2.11,3.87,3.87,0,0,1,2.29-.72,5.57,5.57,0,0,1,1.39.19,7.57,7.57,0,0,1,1.22.4L477.92,34h-.15l-.37-1c-.36-1-.61-1.63-.74-1.88a3.27,3.27,0,0,0-1-.17,2,2,0,0,0-1.54.72,4.76,4.76,0,0,0-.95,1.91,10.69,10.69,0,0,0,0,5.27,4,4,0,0,0,1,1.79,2.18,2.18,0,0,0,1.58.63,4.4,4.4,0,0,0,2.82-1.14l.1.15a5.2,5.2,0,0,1-1.55,1.43,3.4,3.4,0,0,1-1.72.5A3.72,3.72,0,0,1,473.15,41.58Z"/><path d="M484.1,42h-4.52v-.22l1.5-.46V32.05l-1.33-.45v-.21l2.76-.72.08.12V41.31l1.51.46Zm-3-14.14a1,1,0,0,1,0-1.41.94.94,0,0,1,.7-.28,1,1,0,0,1,.72.28,1,1,0,0,1,.28.71,1,1,0,0,1-.28.7,1,1,0,0,1-.72.27A1,1,0,0,1,481.07,27.85Z"/><path d="M486.69,42a5.43,5.43,0,0,1-1.39-.58l.52-2.42H486l.29.68a14.1,14.1,0,0,0,.94,2,3.61,3.61,0,0,0,.59.15,5.16,5.16,0,0,0,.67.05,1.75,1.75,0,0,0,1.48-.59,2.44,2.44,0,0,0,.46-1.51,2.32,2.32,0,0,0-.25-1.1,2.47,2.47,0,0,0-.65-.75,12.92,12.92,0,0,0-1.16-.79l-.65-.41a13,13,0,0,1-1.15-.82,3.55,3.55,0,0,1-.81-1,2.68,2.68,0,0,1-.35-1.37,3,3,0,0,1,.43-1.64A2.61,2.61,0,0,1,487,31a4.23,4.23,0,0,1,1.68-.32,5.1,5.1,0,0,1,1.31.2,5.72,5.72,0,0,1,1.26.48l-.36,2.38h-.15c-.29-.69-.53-1.25-.72-1.67a4.9,4.9,0,0,0-.52-.9,1.31,1.31,0,0,0-.4-.11,3.37,3.37,0,0,0-.52-.05,1.62,1.62,0,0,0-1.4.63,2.47,2.47,0,0,0-.47,1.51,2,2,0,0,0,.45,1.28,5.21,5.21,0,0,0,1.29,1.1l.76.47a12.46,12.46,0,0,1,1.27.9,4.1,4.1,0,0,1,.88,1,2.47,2.47,0,0,1,.36,1.32,3,3,0,0,1-.43,1.66,2.72,2.72,0,0,1-1.2,1,4.22,4.22,0,0,1-1.76.35A5.81,5.81,0,0,1,486.69,42Z"/><path d="M495.16,41.57a4.39,4.39,0,0,1-1.45-1.94,7.74,7.74,0,0,1-.5-2.87,8.91,8.91,0,0,1,.52-3.18,5.06,5.06,0,0,1,1.44-2.14,3.17,3.17,0,0,1,2.07-.77,2.91,2.91,0,0,1,1.89.65,4,4,0,0,1,1.22,1.77,7,7,0,0,1,.42,2.49h-5.9c0,.14,0,.36,0,.66a7.89,7.89,0,0,0,.74,3.72,2.33,2.33,0,0,0,2.15,1.36,4,4,0,0,0,1.51-.3,4.31,4.31,0,0,0,1.31-.84l.1.15a5.35,5.35,0,0,1-1.5,1.4,3.29,3.29,0,0,1-1.77.53A3.67,3.67,0,0,1,495.16,41.57Zm4.06-6.48a6.84,6.84,0,0,0-.54-3,1.65,1.65,0,0,0-1.5-1.06,1.5,1.5,0,0,0-1.15.53,3.71,3.71,0,0,0-.8,1.51,10.38,10.38,0,0,0-.36,2.29Z"/><path d="M503.47,42a5.59,5.59,0,0,1-1.39-.58L502.6,39h.17l.28.68a13.85,13.85,0,0,0,.95,2,3.23,3.23,0,0,0,.58.15,5.16,5.16,0,0,0,.67.05,1.75,1.75,0,0,0,1.48-.59,2.44,2.44,0,0,0,.46-1.51,2.21,2.21,0,0,0-.25-1.1,2.58,2.58,0,0,0-.64-.75c-.27-.21-.65-.47-1.16-.79l-.66-.41a11.41,11.41,0,0,1-1.14-.82,3.41,3.41,0,0,1-.82-1,2.68,2.68,0,0,1-.34-1.37A3,3,0,0,1,502.6,32a2.67,2.67,0,0,1,1.17-1,4.23,4.23,0,0,1,1.68-.32,5.23,5.23,0,0,1,1.32.2,5.83,5.83,0,0,1,1.25.48l-.36,2.38h-.15c-.29-.69-.53-1.25-.72-1.67a4.38,4.38,0,0,0-.52-.9,1.23,1.23,0,0,0-.4-.11,3.37,3.37,0,0,0-.52-.05,1.63,1.63,0,0,0-1.4.63,2.46,2.46,0,0,0-.46,1.51,2,2,0,0,0,.44,1.28,5.1,5.1,0,0,0,1.3,1.1L506,36a12.46,12.46,0,0,1,1.27.9,4.14,4.14,0,0,1,.89,1,2.47,2.47,0,0,1,.36,1.32,3,3,0,0,1-.44,1.66,2.64,2.64,0,0,1-1.19,1,4.27,4.27,0,0,1-1.77.35A5.81,5.81,0,0,1,503.47,42Z"/><path d="M.5,35.8l.21-.24,2.13,1.69c.73-1.65,1.35-3.15,1.87-4.48s1-2.59,1.59-3.79l.32.12Q4.81,34.36,3,39.39A21.5,21.5,0,0,0,.5,35.8Zm1-9.51.12-.18a25.28,25.28,0,0,1,3.27,2.28,5.13,5.13,0,0,1-.3,1.66A18,18,0,0,0,1.49,26.29ZM13.11,37.34a15.4,15.4,0,0,0,1.66,2.52,4.8,4.8,0,0,0,1.75.9,11.34,11.34,0,0,0,1.92.31l0,.3-3.93.2q-1.8-3.62-3.76-7.14a11.74,11.74,0,0,1-2.83,4.85A11.72,11.72,0,0,1,3,42.4l-.1-.24a12.93,12.93,0,0,0,5-3.94,10.92,10.92,0,0,0,2.32-5.85,6.68,6.68,0,0,0-.08-2l.16-.14,1.29,1.17a4,4,0,0,0-.74,2.06Q11.93,35.31,13.11,37.34ZM12,29.28a7,7,0,0,0-2.09.45L9.3,29.3a16.66,16.66,0,0,1-3.19,4.85L5.83,34a22,22,0,0,0,3.82-9.3,13.3,13.3,0,0,0,.08-1.65l.16,0,1.31,1.19a2.37,2.37,0,0,0-.53.74,34.23,34.23,0,0,1-1.29,4l5.51-.63.37-.78,1.33,1a2.26,2.26,0,0,0-1,.92l-1.84,2.69L13.48,32l1.41-3.09C14,29.06,13,29.17,12,29.28Z"/><path d="M27,25.55c-2.81.19-4.29.37-4.42.56l-1.17-.8q6.72-.37,10.18-.61T35.52,24l1.25.95c-2.24.18-4.19.31-5.88.39l-.12,2.56,2.65-.18.86-1,.87,1-.78.66-.21,3,.53.4c-.35,0-1.15.06-2.39.15l-3.93.24.83,1A5,5,0,0,0,28,34.81c5.47-.34,8.43-.68,8.86-1l1.27.83c-2.09.21-4,.39-5.65.52a11.05,11.05,0,0,1-2.32,3.66c1.54.57,3.13,1.13,4.74,1.67a15.08,15.08,0,0,1,.3,1.55,55.09,55.09,0,0,0-5.63-2.62,15.71,15.71,0,0,1-7.4,3l0-.28a27.38,27.38,0,0,0,3.42-1.19,15.13,15.13,0,0,0,3.2-1.86c-1.08-.45-2.25-.89-3.52-1.33a16.16,16.16,0,0,0,1.58-2.3c-3.19.25-4.93.51-5.21.76l-1.13-.82q3.81-.29,6.66-.57a5.14,5.14,0,0,0,1.07-2.6l-3.37.32c0,.77-.07,1.18-.22,1.25s-.49-.48-.75-1.25A4.79,4.79,0,0,0,24,31V29.56q0-.19,0-.93a5.53,5.53,0,0,0-.23-1.39L24,27a8.94,8.94,0,0,1,.83,1.31l2.3-.2Zm.16,6.07-.08-2.88-2.3.2v2.92Zm2.2,6.9a9.64,9.64,0,0,0,2.1-3.35c-1.44.12-2.72.2-3.83.23a19.58,19.58,0,0,1-1.54,2.14ZM27.75,28.11,30.07,28l.08-2.6-2.44.16,0,2.52ZM30,31.42l.12-2.82-2.32.1.08,2.88Zm3.47-.2.16-2.95-2.81.29-.1,2.86Z"/><path d="M45.91,31.58v7.69c0,.7,0,1.31,0,1.84s-.09.8-.17.82-.22-.2-.4-.54a8.62,8.62,0,0,1-.47-1,6,6,0,0,0,.3-2.58v-6.2A17.32,17.32,0,0,1,40.82,37l-.22-.2a20.93,20.93,0,0,0,4.18-6.7,9.82,9.82,0,0,0-2.73.62L41,30.09c1.74-.26,3.12-.45,4.14-.59V26.34c-.95.26-2,.53-3.15.78l-.12-.3a21.38,21.38,0,0,0,3.2-1.25,4.73,4.73,0,0,0,2-1.47h.28l1.33.94c-.49.18-.91.32-1.25.43a9.9,9.9,0,0,1-1.51.6v3.31a8.23,8.23,0,0,0,2.88-.74l1.19.78c-1.69.22-3,.4-4.07.55V31a10.76,10.76,0,0,1,3,1.45,2.75,2.75,0,0,1-.24,1.29A14,14,0,0,0,45.91,31.58Zm7.7,10.29a7,7,0,0,1-.44-1,6.24,6.24,0,0,0,.31-2.62V34.69c-1.63.31-2.79.54-3.49.71a3,3,0,0,0-1.4.6l-1.13-.75c2.77-.59,4.78-1,6-1.19V25.79a11.19,11.19,0,0,0-.31-2.64l.2-.12,1.09,1a4.47,4.47,0,0,0-.24,1.78v8.15q1.47-.28,2.1-.48a3,3,0,0,0,1-.47l1.29.69c-1.6.4-3.05.7-4.34.89v5.25c0,.64,0,1.22,0,1.74s-.09.8-.17.84S53.77,42.2,53.61,41.87ZM49.22,30.21l.24-.24a17,17,0,0,1,2.84,1.65,5.85,5.85,0,0,1-.6,1.23A9.07,9.07,0,0,0,49.22,30.21Zm.52-4.54.2-.24c.82.54,1.61,1.09,2.36,1.65A4.73,4.73,0,0,1,52,28.6,10.72,10.72,0,0,0,49.74,25.67Z"/><path d="M63,27.73h.36V29.5c2.73-.23,5.57-.48,8.5-.76a24.47,24.47,0,0,0,1.69-4.14A4.36,4.36,0,0,0,73.78,23l.2-.13,1.07,1.6a1.39,1.39,0,0,0-.71.85,21.19,21.19,0,0,1-2.06,3.43c1.33-.06,2.61-.14,3.82-.27l.76-.78,1.09,1c-.12-.06-.39.08-.82.4-.47.57-1.08,1.33-1.82,2.28l-.22-.2,1-2.12q-2.85.29-6.62.54l-6.1.45a6,6,0,0,1-.28,1.51,2.94,2.94,0,0,1-.75,1.29,8.89,8.89,0,0,1-.58-1.51A4.78,4.78,0,0,0,63,27.73Zm7,7.65q5.72-.33,6.54-.77l1.21.87q-4.5.3-7.59.48a8.07,8.07,0,0,1,.31,1.94v.85a7.38,7.38,0,0,1-1.07,3.89c-.86-.85-1.82-1.74-2.87-2.66l.16-.29,2.57,1.5a6.25,6.25,0,0,0,.5-2.44v-.63A8.35,8.35,0,0,0,69.48,36l-4.62.37c-1.16.11-1.77.23-1.84.38L61.77,36c2.95-.24,5.47-.44,7.57-.58a16.91,16.91,0,0,0-.61-1.82l.28-.12a12.07,12.07,0,0,1,.63,1.07q1.23-1.38,2.22-2.46l-2.67.25c-1,.09-2,.2-3,.35a1.23,1.23,0,0,0-.47.22l-1-.82,3.76-.31,3.68-.32.87-1,1,1a4.4,4.4,0,0,0-.91.59q-1.64,1.35-3.27,2.84C69.87,35,69.92,35.17,70,35.38Zm-5.49-11,.25-.28a25.09,25.09,0,0,1,2.64,3,9.12,9.12,0,0,1-.71,1.56A16.42,16.42,0,0,0,64.51,24.38Zm4-1.31.14-.21A25.37,25.37,0,0,1,70.83,26,7.45,7.45,0,0,1,70,27.69,29.82,29.82,0,0,0,68.47,23.07Z"/><path d="M83.7,32.49a1,1,0,0,1,.09-.54,1.23,1.23,0,0,1,.46-.56,1.71,1.71,0,0,1,.85-.27,1.11,1.11,0,0,1,.83.34,1.5,1.5,0,0,1,.46,1,1.17,1.17,0,0,1-.31.84,1.5,1.5,0,0,1-1.06.41A1.31,1.31,0,0,1,83.7,32.49Zm0,6a.91.91,0,0,1,.09-.52,1.46,1.46,0,0,1,.46-.55,1.62,1.62,0,0,1,.85-.28,1.15,1.15,0,0,1,.84.33,1.52,1.52,0,0,1,.45,1,1.21,1.21,0,0,1-.31.87,1.47,1.47,0,0,1-1.06.43A1.39,1.39,0,0,1,83.7,38.52Z"/><path d="M108.14,35.92v.3c-1.2.64-2.35,1.2-3.46,1.69a6.84,6.84,0,0,0-2.29,1.44l-1.09-1,1.84-.55a12.4,12.4,0,0,0,1.69-.64V31.82a5.31,5.31,0,0,0-2,.59l-1-.71a27.79,27.79,0,0,0,3-.44V26.9a6.65,6.65,0,0,0-.34-2.56l.22-.2,1.11,1.07a3.42,3.42,0,0,0-.24,1.69v4.22a3.37,3.37,0,0,0,1.61-.45l1.15.67q-1.43.16-2.76.36v5.21C106.33,36.6,107.19,36.27,108.14,35.92Zm8.47-1.46a8.48,8.48,0,0,1-.94,3.32,27.7,27.7,0,0,0-2.24-2.22v1.93c0,.61,0,1.12-.05,1.55s-.1.64-.19.65-.26-.17-.43-.49a6.73,6.73,0,0,1-.4-1,6,6,0,0,0,.32-2.64v-3.9c-.93.47-1.74.87-2.44,1.19v7A1.18,1.18,0,0,0,111.45,41h4.42a10.24,10.24,0,0,0,1.36-.06.87.87,0,0,0,.82-.69q.14-1.56.18-3.69h.32c0,1.09.1,1.94.16,2.55a18.54,18.54,0,0,0,.39,2.23,4.42,4.42,0,0,1-1.88.32h-5.73a1.87,1.87,0,0,1-2-2V33.08a3.67,3.67,0,0,0-1,.74l-1.23-.3c.85-.38,1.6-.73,2.26-1.07V29.06a23.09,23.09,0,0,0-.12-2.4l.2-.2,1,1.37a1.92,1.92,0,0,0-.28,1.15v3.19c.86-.38,1.68-.76,2.44-1.13V26a10.62,10.62,0,0,0-.24-2.6l.2-.24,1.27,1.15a3,3,0,0,0-.48,1.69v4.72c.87-.37,1.78-.79,2.72-1.25l.55-.82,1,.88a1.38,1.38,0,0,0-.71.77C116.93,31.57,116.79,33,116.61,34.46Zm-.34-4.41c-1,.46-1.94.89-2.84,1.29v3.83l2,1.21a3.26,3.26,0,0,0,.3-1.17C116,33.8,116.15,32.08,116.27,30.05Z"/><path d="M134.1,25.38a3.92,3.92,0,0,0,2.07-1.77h.12l.91,1.27a11.83,11.83,0,0,0-2.56.93,28.23,28.23,0,0,1-4.42,1.51v3.31c.07,0,.08,0,0,0,1.8-.25,3.39-.51,4.76-.78l.69-.83,1,1a1.54,1.54,0,0,0-.67,1,23.93,23.93,0,0,1-.8,2.8,21.52,21.52,0,0,1-1.2,2.75,13,13,0,0,0,2.36,3.1,3.87,3.87,0,0,0,1.7.9c.55.12,1,.21,1.49.27v.21l-3.59.3q-1.15-2-2.44-4.12a14.21,14.21,0,0,1-6.34,5.19l-.16-.08a22.38,22.38,0,0,0,3-2.2,12.09,12.09,0,0,0,3.17-3.73c-.57-1-1.09-1.94-1.58-2.73A10.14,10.14,0,0,0,130.42,32l.08-.29,1.29.29c0,.64.54,1.89,1.74,3.73a30.17,30.17,0,0,0,1.1-2.84,19.9,19.9,0,0,0,.63-2.53c-1,.15-1.85.29-2.66.44a4.85,4.85,0,0,0-1.47.39l-.91-.47a24.53,24.53,0,0,1-.81,6,12.22,12.22,0,0,1-3.33,5.79c-.13,0-.3-.18-.49-.5a4.51,4.51,0,0,1-.46-1,6.9,6.9,0,0,0,.29-2.59V31.58A23.24,23.24,0,0,1,121.08,38l-.2-.18A33.64,33.64,0,0,0,123.36,34a17.52,17.52,0,0,0,1.69-4.26,6.7,6.7,0,0,0-2.12.4l-1.07-.61c1.28-.14,2.47-.3,3.56-.46V25.67a4.7,4.7,0,0,0-.53-2.6l.28-.21,1.24,1.07a3.48,3.48,0,0,0-.25,1.74V29a6.3,6.3,0,0,0,2-.42l.93.62c-1,.16-2,.29-2.91.38V31l2.28.9a3.46,3.46,0,0,1-.24,1.58,8.2,8.2,0,0,0-2-2V40c0,1.06,0,1.73,0,2a11.7,11.7,0,0,0,2.5-5,24.9,24.9,0,0,0,.81-6.29V27.28a10.81,10.81,0,0,0-.28-2.11l.28-.17c.27.74.52,1.38.75,1.9A30.55,30.55,0,0,0,134.1,25.38Z"/><path d="M148.38,36.16l.24.18c-1.18.7-2.39,1.39-3.63,2A11.68,11.68,0,0,0,142.51,40l-1.25-.87C143.53,38.23,145.91,37.24,148.38,36.16ZM148,29.38a1.35,1.35,0,0,0-.63.47,44.31,44.31,0,0,1-3.79,5l4.22-.87.12.37A17.52,17.52,0,0,0,143,36.2l-.83-.91c-.06-.16.21-.39.83-.68a11.23,11.23,0,0,0,1.21-1.43,27,27,0,0,0,1.74-2.51,11.67,11.67,0,0,0-3.39,1l-.85-.91a4.94,4.94,0,0,0,.71-.54,20.47,20.47,0,0,0,1.88-2.93,13.24,13.24,0,0,0,1.1-2.64,5,5,0,0,0,.08-1.17l.21-.12,1,1.61a2,2,0,0,0-.77.91,45.06,45.06,0,0,1-3,4.76l1.25-.17,2-.25a4.3,4.3,0,0,0,.71-2.34l.24-.14Zm2.2,6.88a1.12,1.12,0,0,1,.24-.46,1.29,1.29,0,0,0,.08-.36l.24-.06.59,1.45a1.76,1.76,0,0,0-.87.54,22.62,22.62,0,0,1-4.58,4.28l-.26-.24A18,18,0,0,0,150.16,36.26Zm3.47-2.36v5.69a5.63,5.63,0,0,1-.59,2.77A12.28,12.28,0,0,0,150,40l.19-.29,2.44,1a3.69,3.69,0,0,0,.22-1c0-.41.06-.74.06-1V34c-.82.1-1.74.23-2.76.41a1.84,1.84,0,0,0-.79.38l-1-.87a3.92,3.92,0,0,1,.67-.62,5.68,5.68,0,0,0,.49-.9c.18-.4.35-.77.49-1.12a7.24,7.24,0,0,0-1.35.28l-1-.62c1.09-.11,1.93-.22,2.53-.33a21.15,21.15,0,0,0,1-2.76,4.81,4.81,0,0,0-2.33.6l-1.11-.78c1.39-.15,2.6-.3,3.64-.45.28-1.07.51-2.15.7-3.23a2.44,2.44,0,0,0,0-.94l.29-.21,1.07,1.4a6.34,6.34,0,0,0-1.28,2.9c1.28-.15,2.36-.31,3.22-.48a4.18,4.18,0,0,0,1.51-.47l1.19.77c-2.21.27-4.23.55-6.08.83a19.49,19.49,0,0,1-.95,2.74c.6-.12,1.15-.22,1.66-.3l.6-.79,1,.89a1.73,1.73,0,0,0-.66,1.35v1.66c.59-.1,1.16-.2,1.71-.32a2.27,2.27,0,0,0,1.13-.47l1.37.79Zm-2.75-2.72a17.74,17.74,0,0,1-1.31,2.68l3.31-.38V30.79C152.25,30.93,151.58,31.06,150.88,31.18Zm3.49,4.54.17-.24a39.42,39.42,0,0,1,4.13,2.8,10.12,10.12,0,0,1-.34,1.74A18.7,18.7,0,0,0,154.37,35.72Z"/><path d="M169.21,34q3.14-1.05,5.3-1.86l.16.24c-2,.93-3.9,1.74-5.71,2.45a19.3,19.3,0,0,0-3.75,1.81l-1.37-.91C165.32,35.27,167.11,34.7,169.21,34Zm.78,4,.27-.22,3.24,2.08a31.55,31.55,0,0,0,1.36-6.22q.48-3.75.84-7.47l-2.81.26c-1.07.08-2.13.18-3.17.28s-1.91.2-2.61.31-1.07.22-1.09.34l-1.19-.74c3.53-.39,7.15-.75,10.83-1.07l.55-.59,1,1a1.19,1.19,0,0,0-.75.88,10.77,10.77,0,0,0-.24,1.83q-.39,3.75-1,7.42a18.62,18.62,0,0,1-1.72,5.73A24.25,24.25,0,0,0,170,38Zm-1.07-7c-.82-.56-1.64-1.08-2.48-1.55l.2-.28c1.59.67,3,1.24,4.26,1.7a11.92,11.92,0,0,1,0,1.69A14.72,14.72,0,0,0,168.92,31Z"/></svg>