<svg id="图层_1" data-name="图层 1" xmlns="http://www.w3.org/2000/svg" viewBox="0 0 113 44"><path d="M7.35.68,12,15.81l1.65.6v.22H8.71v-.22l1.55-.6L8.92,11.27H3.62L2.29,15.81l2.05.6v.22H.17v-.22l1.73-.6L6,2,5.1.9V.68ZM6.26,2.31,3.75,10.85H8.8Z"/><path d="M15.93,16.26a3.07,3.07,0,0,1-.51-2V5.94h-1V5.78l1.21-.53,1.15-2h.11V5.61h2.55v.33H16.93v8.57a2.39,2.39,0,0,0,.23,1.2.9.9,0,0,0,.82.37,1.84,1.84,0,0,0,.75-.16,1.7,1.7,0,0,0,.61-.4l.11.13a3.22,3.22,0,0,1-.92.88,2.17,2.17,0,0,1-1.21.36A1.69,1.69,0,0,1,15.93,16.26Z"/><path d="M22.5,16.21a4.3,4.3,0,0,1-1.44-1.94,7.54,7.54,0,0,1-.51-2.87,9.14,9.14,0,0,1,.52-3.18,5.09,5.09,0,0,1,1.44-2.15,3.18,3.18,0,0,1,2.08-.76A2.9,2.9,0,0,1,26.47,6a4,4,0,0,1,1.22,1.77,7,7,0,0,1,.42,2.49h-5.9c0,.14,0,.36,0,.65a7.91,7.91,0,0,0,.74,3.73A2.35,2.35,0,0,0,25.09,16a3.94,3.94,0,0,0,1.5-.3,4.38,4.38,0,0,0,1.31-.84L28,15a5.22,5.22,0,0,1-1.5,1.4,3.28,3.28,0,0,1-1.77.52A3.73,3.73,0,0,1,22.5,16.21Zm4.06-6.48a6.84,6.84,0,0,0-.54-3,1.66,1.66,0,0,0-1.5-1.07,1.51,1.51,0,0,0-1.15.54,3.64,3.64,0,0,0-.8,1.51A10.38,10.38,0,0,0,22.21,10Z"/><path d="M33.55,16.63H29v-.22L30.54,16V1.41L29.36.88V.74L31.94,0l.1.13V16l1.51.46Z"/><path d="M38.88,16.63H34.35v-.22L35.86,16V6.68l-1.33-.44V6l2.76-.72.08.12V16l1.51.46Zm-3-14.14a.93.93,0,0,1-.28-.71,1,1,0,0,1,.28-.7A1,1,0,0,1,36.56.8a1,1,0,0,1,1,1,.94.94,0,0,1-.29.71,1,1,0,0,1-.71.27A1,1,0,0,1,35.85,2.49Z"/><path d="M42,16.21a4.39,4.39,0,0,1-1.45-1.94A7.74,7.74,0,0,1,40,11.4a8.91,8.91,0,0,1,.52-3.18A5.09,5.09,0,0,1,42,6.07a3.15,3.15,0,0,1,2.07-.76A2.91,2.91,0,0,1,46,6a4,4,0,0,1,1.22,1.77,7,7,0,0,1,.42,2.49H41.7c0,.14,0,.36,0,.65a7.91,7.91,0,0,0,.74,3.73A2.33,2.33,0,0,0,44.57,16a4,4,0,0,0,1.51-.3,4.51,4.51,0,0,0,1.31-.84l.1.15a5.35,5.35,0,0,1-1.5,1.4,3.28,3.28,0,0,1-1.77.52A3.73,3.73,0,0,1,42,16.21Zm4.06-6.48a6.84,6.84,0,0,0-.54-3A1.66,1.66,0,0,0,44,5.65a1.55,1.55,0,0,0-1.16.54,3.76,3.76,0,0,0-.79,1.51A10.38,10.38,0,0,0,41.7,10Z"/><path d="M48.51,16.63v-.22L50,16V6.68l-1.35-.44V6l2.76-.72.08.12v1.9a4.53,4.53,0,0,1,.83-1.13,3.22,3.22,0,0,1,.94-.67,2.07,2.07,0,0,1,.87-.22,1.68,1.68,0,0,1,.79.16l-.33,2.61h-.11A10.19,10.19,0,0,0,53.2,6.41c-.63,0-1.19.46-1.68,1.37V16l1.72.46v.22Z"/><path d="M65.49,16.63h-4.9v-.22l1.63-.59V1.5L60.59.9V.68h4.9V.9l-1.65.6V8.25H71V1.5L69.35.9V.68h4.9V.9l-1.65.6V15.81l1.65.6v.22h-4.9v-.22L71,15.82V8.67H63.84v7.14l1.65.6Z"/><path d="M78.21,15.87A6.58,6.58,0,0,1,76,13a11.23,11.23,0,0,1-.76-4.3A11.37,11.37,0,0,1,76,4.36a6.58,6.58,0,0,1,2.17-2.91,5.24,5.24,0,0,1,3.21-1,5.3,5.3,0,0,1,3.23,1,6.64,6.64,0,0,1,2.16,2.91,11.37,11.37,0,0,1,.76,4.32,11.23,11.23,0,0,1-.76,4.3,6.63,6.63,0,0,1-2.16,2.89,5.36,5.36,0,0,1-3.23,1A5.3,5.3,0,0,1,78.21,15.87Zm5.49-.36a6.41,6.41,0,0,0,1.53-2.75,13.61,13.61,0,0,0,.55-4.08,13.75,13.75,0,0,0-.55-4.1A6.51,6.51,0,0,0,83.7,1.82a3.13,3.13,0,0,0-4.55,0,6.41,6.41,0,0,0-1.53,2.75,14.59,14.59,0,0,0-.53,4.11,14.32,14.32,0,0,0,.53,4.08,6.41,6.41,0,0,0,1.53,2.75,3.15,3.15,0,0,0,4.55,0Z"/><path d="M93.48,16.63H88.6v-.22l1.63-.59V1.5L88.6.9V.68h4.88V.9l-1.63.6V15.81l1.63.6Zm7,0H97.53l-5-8.17L97.8,1.59,95.42.9V.68H100V.9l-1.61.6-4.64,6,5.14,8.27,1.54.49Z"/><path d="M102.91,15.87A6.63,6.63,0,0,1,100.75,13a11.23,11.23,0,0,1-.76-4.3,11.37,11.37,0,0,1,.76-4.32,6.64,6.64,0,0,1,2.16-2.91,5.55,5.55,0,0,1,6.44,0,6.66,6.66,0,0,1,2.17,2.91,11.57,11.57,0,0,1,.76,4.32,11.42,11.42,0,0,1-.76,4.3,6.65,6.65,0,0,1-2.17,2.89,5.59,5.59,0,0,1-6.44,0Zm5.5-.36a6.41,6.41,0,0,0,1.53-2.75,14,14,0,0,0,.54-4.08,14.1,14.1,0,0,0-.54-4.1,6.51,6.51,0,0,0-1.53-2.76,3.16,3.16,0,0,0-2.28-1,3.12,3.12,0,0,0-2.27,1,6.41,6.41,0,0,0-1.53,2.75,14.22,14.22,0,0,0-.54,4.11,14,14,0,0,0,.54,4.08,6.41,6.41,0,0,0,1.53,2.75,3.11,3.11,0,0,0,2.27,1A3.15,3.15,0,0,0,108.41,15.51Z"/><path d="M51.23,39A4.37,4.37,0,0,1,49.77,37a7.26,7.26,0,0,1-.52-2.86,8.53,8.53,0,0,1,.59-3.32,4.83,4.83,0,0,1,1.6-2.1,3.92,3.92,0,0,1,2.3-.72,5.63,5.63,0,0,1,1.39.19,6.78,6.78,0,0,1,1.22.39L56,31.4h-.15l-.37-1c-.36-1-.61-1.63-.74-1.88a3.32,3.32,0,0,0-1-.17,2,2,0,0,0-1.54.72,4.53,4.53,0,0,0-1,1.9,10.88,10.88,0,0,0,0,5.28,4,4,0,0,0,1,1.79,2.16,2.16,0,0,0,1.58.63,4.33,4.33,0,0,0,1.44-.29,4.05,4.05,0,0,0,1.38-.85l.1.14a5.11,5.11,0,0,1-1.55,1.44,3.39,3.39,0,0,1-1.72.49A3.72,3.72,0,0,1,51.23,39Z"/><path d="M59.9,39.24a2.72,2.72,0,0,1-1-1.21,4.63,4.63,0,0,1-.36-1.9V29.41L57.25,29v-.21L60,28l.09.12v7.71A3.54,3.54,0,0,0,60.59,38a1.81,1.81,0,0,0,1.55.74,2.74,2.74,0,0,0,1.22-.32,5.17,5.17,0,0,0,1.27-1v-8L63.33,29v-.21L66,28l.09.12V38.34l1,.56V39l-2.27.57-.22-1.7A6.58,6.58,0,0,1,63,39.21a3.48,3.48,0,0,1-1.59.44A2.67,2.67,0,0,1,59.9,39.24Z"/><path d="M69.83,39.37a6,6,0,0,1-1.39-.58L69,36.36h.17l.28.69a15,15,0,0,0,1,2,2.74,2.74,0,0,0,.58.14,4,4,0,0,0,.67.06,1.78,1.78,0,0,0,1.48-.59,2.39,2.39,0,0,0,.46-1.52,2.17,2.17,0,0,0-.25-1.09,2.62,2.62,0,0,0-.64-.76c-.27-.21-.65-.47-1.16-.79l-.66-.41a11.46,11.46,0,0,1-1.14-.81,3.45,3.45,0,0,1-.82-1A2.65,2.65,0,0,1,68.54,31,2.89,2.89,0,0,1,69,29.34a2.53,2.53,0,0,1,1.16-1A4.06,4.06,0,0,1,71.81,28a4.81,4.81,0,0,1,1.32.2,6.18,6.18,0,0,1,1.25.47L74,31.1h-.16c-.29-.7-.53-1.25-.72-1.67a4.12,4.12,0,0,0-.52-.9,1.19,1.19,0,0,0-.4-.12,4.92,4.92,0,0,0-.52,0,1.63,1.63,0,0,0-1.4.63,2.44,2.44,0,0,0-.46,1.51,2,2,0,0,0,.45,1.28,5.19,5.19,0,0,0,1.29,1.09l.75.48a11.44,11.44,0,0,1,1.27.9,3.81,3.81,0,0,1,.89,1,2.46,2.46,0,0,1,.36,1.31,3.08,3.08,0,0,1-.43,1.66,2.68,2.68,0,0,1-1.2,1,4.25,4.25,0,0,1-1.76.34A5.84,5.84,0,0,1,69.83,39.37Z"/><path d="M75.89,44v-.23l1.48-.45V29.41L76,29v-.22L78.76,28l.11.12v1.55a3.66,3.66,0,0,1,1.28-1.26A3.35,3.35,0,0,1,81.76,28a3.18,3.18,0,0,1,2,.67,4.38,4.38,0,0,1,1.36,1.93,7.8,7.8,0,0,1,.49,2.9,8.42,8.42,0,0,1-.53,3.07,5.13,5.13,0,0,1-1.53,2.2,3.73,3.73,0,0,1-2.41.81,2.71,2.71,0,0,1-1.35-.34,2.6,2.6,0,0,1-.93-.82v4.83l1.65.45V44Zm6.79-5.35a4.42,4.42,0,0,0,1-1.89A11,11,0,0,0,84,33.87a8.92,8.92,0,0,0-.36-2.7,3.75,3.75,0,0,0-1-1.69,2.12,2.12,0,0,0-1.47-.57,2.68,2.68,0,0,0-1.34.31,2.63,2.63,0,0,0-.93,1v6.86a3.68,3.68,0,0,0,1,1.66,2,2,0,0,0,1.31.56A2,2,0,0,0,82.68,38.62Z"/><path d="M89,38.93A4.4,4.4,0,0,1,87.7,37a8.46,8.46,0,0,1-.44-2.81A8.64,8.64,0,0,1,87.82,31a5,5,0,0,1,1.6-2.19,3.88,3.88,0,0,1,2.4-.78,2.4,2.4,0,0,1,1.12.27,2.89,2.89,0,0,1,.94.78V24.14l-1.18-.53v-.14l2.55-.71.11.12V38.45l1,.46V39l-2.25.58-.2-1.56a5.62,5.62,0,0,1-1.34,1.16,3.15,3.15,0,0,1-1.63.4A2.94,2.94,0,0,1,89,38.93Zm3.88-.41a3.23,3.23,0,0,0,1-.84V30.61a3,3,0,0,0-.75-1.67,1.77,1.77,0,0,0-1.29-.56,2,2,0,0,0-1.53.7,4.74,4.74,0,0,0-1,1.92,9.86,9.86,0,0,0-.36,2.78,9.65,9.65,0,0,0,.34,2.7,3.78,3.78,0,0,0,1,1.72,2.13,2.13,0,0,0,1.49.59A2.44,2.44,0,0,0,92.85,38.52Z"/><path d="M99.69,38.94a4.39,4.39,0,0,1-1.52-2,8.14,8.14,0,0,1-.54-3.12,8.14,8.14,0,0,1,.54-3.12,4.39,4.39,0,0,1,1.52-2A3.89,3.89,0,0,1,102,28a3.84,3.84,0,0,1,2.28.68,4.39,4.39,0,0,1,1.52,2,8,8,0,0,1,.55,3.12,8,8,0,0,1-.55,3.12,4.39,4.39,0,0,1-1.52,2,3.91,3.91,0,0,1-2.28.68A4,4,0,0,1,99.69,38.94Zm4.29-1a9.22,9.22,0,0,0,.71-4.07,9.28,9.28,0,0,0-.71-4.07,2.12,2.12,0,0,0-4,0,9.09,9.09,0,0,0-.71,4.06,9.26,9.26,0,0,0,.7,4.08,2.14,2.14,0,0,0,4,0Z"/><path d="M109.3,39a3.07,3.07,0,0,1-.51-2V28.67h-1V28.5L109,28l1.15-2h.11v2.36h2.55v.33H110.3v8.57a2.42,2.42,0,0,0,.23,1.2.9.9,0,0,0,.82.37,2,2,0,0,0,1.36-.56l.11.13a3.22,3.22,0,0,1-.92.88,2.17,2.17,0,0,1-1.21.36A1.69,1.69,0,0,1,109.3,39Z"/></svg>